<?xml version="1.0" encoding="UTF-8"?>
<svg id="Layer_1" xmlns="http://www.w3.org/2000/svg" viewBox="0 0 1000 211.36">
  <defs>
    <style>
      .cls-1 {
        fill: #e6e6e6;
      }
    </style>
  </defs>
  <g>
    <path class="cls-1" d="M320.64,17.02h95.17v22.88h-66.25v21.62h66.25v22.04h-66.25v22.88h66.25v22.88h-95.17V17.02Z"/>
    <path class="cls-1" d="M565.92,125.39c-9.22-4.4-16.38-10.6-21.48-18.6-5.1-8-7.65-17.05-7.65-27.16v-12.91c0-10.11,2.55-19.16,7.65-27.16,5.1-8,12.26-14.2,21.48-18.6,9.21-4.4,19.67-6.6,31.37-6.6s21.05,1.89,29.76,5.68c8.7,3.79,15.46,9.1,20.28,15.93,4.82,6.83,7.23,14.55,7.23,23.16v4.91h-29.76v-5.19c0-3.56-1.22-6.74-3.65-9.55-2.43-2.81-5.75-5-9.96-6.6-4.21-1.59-8.94-2.39-14.18-2.39-5.99,0-11.3,1.12-15.93,3.37-4.63,2.25-8.21,5.36-10.74,9.33-2.53,3.98-3.79,8.49-3.79,13.55v13.19c0,5.05,1.26,9.57,3.79,13.54,2.53,3.98,6.11,7.09,10.74,9.33,4.63,2.25,9.94,3.37,15.93,3.37,5.24,0,9.97-.79,14.18-2.39,4.21-1.59,7.53-3.79,9.96-6.6,2.43-2.81,3.65-5.99,3.65-9.55v-5.19h29.76v4.91c0,8.61-2.41,16.33-7.23,23.16-4.82,6.83-11.58,12.14-20.28,15.93-8.7,3.79-18.62,5.69-29.76,5.69-11.7,0-22.16-2.2-31.37-6.6Z"/>
    <path class="cls-1" d="M665.65,17.02h95.17v22.88h-66.25v21.62h66.25v22.04h-66.25v22.88h66.25v22.88h-95.17V17.02Z"/>
    <path class="cls-1" d="M776.54,17.02h95.17v22.88h-66.25v21.62h66.25v22.04h-66.25v22.88h66.25v22.88h-95.17V17.02Z"/>
    <path class="cls-1" d="M887.43,17.02h61.06c9.92,0,18.81,2.11,26.67,6.32,7.86,4.21,13.96,10.15,18.32,17.83,4.35,7.67,6.53,16.33,6.53,25.97v12.07c0,9.64-2.18,18.3-6.53,25.97-4.35,7.67-10.46,13.61-18.32,17.83-7.86,4.21-16.75,6.32-26.67,6.32h-61.06V17.02ZM960.28,100.33c3.37-1.92,6.01-4.7,7.93-8.35,1.92-3.65,2.88-7.77,2.88-12.35v-12.91c0-4.58-.96-8.7-2.88-12.35-1.92-3.65-4.56-6.43-7.93-8.35-3.37-1.92-7.3-2.88-11.79-2.88h-32.14v60.08h32.14c4.49,0,8.42-.96,11.79-2.88Z"/>
    <polygon class="cls-1" points="496.95 71.1 535.98 17.02 505.8 17.02 481.62 51.77 456.98 17.02 425.4 17.02 464.74 72.03 423.34 128.94 455.26 128.94 480.69 91.71 506.58 128.94 538.65 128.94 496.95 71.1"/>
  </g>
  <g>
    <path class="cls-1" d="M320.64,168.24h30.71v6.18h-23.11v9.97h23.11v5.98h-23.11v10.61h23.11v6.18h-30.71v-38.93Z"/>
    <path class="cls-1" d="M367.49,168.24h18.93c3.47,0,6.58.73,9.32,2.19,2.74,1.46,4.87,3.49,6.4,6.08s2.29,5.53,2.29,8.81v4.77c0,3.28-.76,6.21-2.29,8.81s-3.66,4.62-6.4,6.08c-2.74,1.46-5.85,2.19-9.32,2.19h-18.93v-38.93ZM391.87,199.09c1.59-.84,2.82-2.04,3.7-3.6.88-1.56,1.31-3.34,1.31-5.35v-4.87c0-2.01-.44-3.79-1.31-5.35-.87-1.56-2.11-2.76-3.7-3.6s-3.41-1.27-5.45-1.27h-11.34v25.3h11.34c2.04,0,3.86-.42,5.45-1.26Z"/>
    <path class="cls-1" d="M426.79,205.91c-2.77-1.46-4.95-3.49-6.52-6.11-1.57-2.61-2.36-5.55-2.36-8.83v-22.73h7.59v22.82c0,1.91.45,3.64,1.36,5.18.91,1.54,2.18,2.75,3.82,3.63,1.64.87,3.49,1.31,5.57,1.31s3.94-.44,5.6-1.31c1.65-.88,2.94-2.08,3.84-3.63.91-1.54,1.36-3.27,1.36-5.18v-22.82h7.59v22.73c0,3.31-.78,6.26-2.34,8.85-1.56,2.6-3.73,4.62-6.52,6.08-2.79,1.46-5.97,2.19-9.54,2.19s-6.69-.73-9.46-2.19Z"/>
    <path class="cls-1" d="M477.68,205.83c-3.03-1.51-5.39-3.63-7.08-6.35-1.69-2.73-2.53-5.81-2.53-9.25v-5.06c0-3.44.84-6.52,2.53-9.25,1.68-2.72,4.05-4.84,7.08-6.35,3.03-1.51,6.48-2.26,10.34-2.26s6.99.65,9.88,1.95c2.89,1.3,5.14,3.11,6.76,5.43,1.62,2.32,2.43,4.94,2.43,7.86v1.99h-7.69v-2.09c0-1.59-.5-3.02-1.51-4.28-1.01-1.27-2.37-2.25-4.09-2.94-1.72-.7-3.68-1.05-5.89-1.05-2.37,0-4.47.46-6.3,1.39-1.83.92-3.26,2.22-4.28,3.87-1.02,1.66-1.53,3.55-1.53,5.69v5.16c0,2.14.51,4.04,1.53,5.69,1.02,1.66,2.45,2.94,4.28,3.87,1.83.92,3.93,1.39,6.3,1.39,2.2,0,4.17-.35,5.89-1.05,1.72-.7,3.08-1.68,4.09-2.94,1.01-1.26,1.51-2.69,1.51-4.28v-2.09h7.69v1.99c0,2.92-.81,5.54-2.43,7.86-1.62,2.32-3.88,4.13-6.76,5.43-2.89,1.3-6.18,1.95-9.88,1.95s-7.31-.75-10.34-2.26Z"/>
    <path class="cls-1" d="M533.23,168.24h9.05l15.81,38.93h-7.98l-3.45-9h-17.76l-3.5,9h-7.98l15.82-38.93ZM544.23,191.79l-6.32-16.54h-.29l-6.28,16.54h12.89Z"/>
    <path class="cls-1" d="M576.58,175.06h-14.45v-6.81h36.49v6.81h-14.45v32.12h-7.59v-32.12Z"/>
    <path class="cls-1" d="M611.23,168.24h7.59v38.93h-7.59v-38.93Z"/>
    <path class="cls-1" d="M642.98,205.81c-3.03-1.52-5.38-3.65-7.06-6.37-1.67-2.72-2.51-5.79-2.51-9.2v-5.06c0-3.41.83-6.48,2.51-9.22,1.67-2.74,4.03-4.86,7.08-6.37,3.05-1.51,6.47-2.26,10.27-2.26s7.24.76,10.24,2.29c3,1.52,5.34,3.65,7.03,6.37,1.69,2.73,2.53,5.79,2.53,9.2v5.06c0,3.41-.84,6.48-2.53,9.22s-4.04,4.86-7.06,6.37c-3.02,1.51-6.44,2.26-10.27,2.26s-7.21-.76-10.24-2.29ZM659.55,199.82c1.85-.94,3.28-2.24,4.28-3.89,1.01-1.65,1.51-3.54,1.51-5.64v-5.16c0-2.11-.5-3.99-1.51-5.64-1.01-1.66-2.43-2.95-4.28-3.89-1.85-.94-3.92-1.41-6.23-1.41s-4.47.47-6.3,1.41-3.27,2.24-4.31,3.89c-1.04,1.65-1.56,3.54-1.56,5.64v5.16c0,2.11.52,3.99,1.56,5.64,1.04,1.66,2.47,2.95,4.31,3.89,1.83.94,3.93,1.41,6.3,1.41s4.38-.47,6.23-1.41Z"/>
    <path class="cls-1" d="M687.67,168.24h10.8l17.18,29.63h.49v-29.63h7.49v38.93h-10.85l-17.18-29.63h-.49l.05,29.63h-7.49v-38.93Z"/>
  </g>
  <g>
    <polygon class="cls-1" points="175.63 71.81 196.35 40.14 179.73 0 20.73 65.86 0 97.53 159 31.67 175.63 71.81"/>
    <polygon class="cls-1" points="203.69 139.57 224.42 107.9 207.79 67.76 101.16 111.93 80.43 143.6 187.07 99.43 203.69 139.57"/>
    <polygon class="cls-1" points="235.86 135.51 129.22 179.68 108.5 211.36 215.13 167.19 231.76 207.33 252.48 175.65 235.86 135.51"/>
  </g>
</svg>